<?xml version="1.0" standalone="no"?><!DOCTYPE svg PUBLIC "-//W3C//DTD SVG 1.1//EN" "http://www.w3.org/Graphics/SVG/1.1/DTD/svg11.dtd"><svg t="1584313449221" class="icon" viewBox="0 0 1024 1024" version="1.1" xmlns="http://www.w3.org/2000/svg" p-id="5862" xmlns:xlink="http://www.w3.org/1999/xlink" width="200" height="200"><defs><style type="text/css"></style></defs><path d="M857.88 710.36h-5.9v-146.48-0.04c-0.02-19.76-16.1-35.84-35.88-35.84H699.36c-19.76 0.02-35.84 16.12-35.84 35.88 0 19.26 15.26 34.96 34.3 35.8 0.26 0.02 0.52 0.08 0.8 0.08h33.32c8.76 0 15.88 7.14 15.88 15.88 0 8.76-7.12 15.88-15.88 15.88h-193.22c-8.74 0-15.88-7.12-15.88-15.88l0.04-171.46c82.78-5.62 148.44-74.72 148.44-158.92 0-87.84-71.48-159.3-159.32-159.3s-159.32 71.46-159.32 159.3c0 84.8 66.58 154.3 150.2 159.04l-0.04 171.34c0 19.78 16.1 35.88 35.88 35.88h196.12c1.1 0 2.14-0.22 3.12-0.54 16.94-2.88 29.86-17.6 29.86-35.34 0-19.78-16.08-35.88-35.88-35.88H699.4c-8.76 0-15.88-7.12-15.88-15.88s7.12-15.88 15.88-15.88h116.7c8.76 0 15.88 7.12 15.88 15.88v146.48h-0.36c-9.2 0-18.02 1.78-26.18 5.04v-30.48c0-5.52-4.48-10-10-10H123.68c-18.32 0-33.22 15.48-33.22 34.52v245.22c0 19.04 14.9 34.52 33.22 34.52h671.76c5.52 0 10-4.48 10-10v-30.48a70.36 70.36 0 0 0 26.18 5.04h26.26c41.72 0 75.66-36.6 75.66-81.6v-80.18c0-45-33.94-81.6-75.66-81.6zM512 424.58c-76.82 0-139.32-62.5-139.32-139.32S435.18 145.96 512 145.96s139.32 62.48 139.32 139.3c0 76.82-62.5 139.32-139.32 139.32z m273.44 544.6H123.68c-7.28 0-13.22-6.52-13.22-14.52V709.44c0-8 5.94-14.52 13.22-14.52h661.76v32.46c-17.9 14.94-29.48 38.32-29.48 64.58v80.18c0 26.26 11.58 49.64 29.48 64.56v32.48z m128.1-97.04c0 33.96-24.98 61.6-55.66 61.6h-26.26c-11.08 0-21.4-3.62-30.08-9.82-0.28-0.2-0.56-0.42-0.86-0.6-14.88-11.06-24.72-29.88-24.72-51.18v-80.18c0-21.36 9.88-40.2 24.82-51.26 0.22-0.12 0.42-0.28 0.62-0.42 8.7-6.26 19.08-9.92 30.22-9.92h26.26c30.68 0 55.66 27.62 55.66 61.6v80.18z" fill="#23130D" p-id="5863"></path><path d="M512 145.96c-76.82 0-139.32 62.48-139.32 139.3 0 76.82 62.5 139.32 139.32 139.32s139.32-62.5 139.32-139.32S588.82 145.96 512 145.96z m-10.16 129.3h20.3c24.88 0 45.14 20.26 45.14 45.16 0 24.9-20.26 45.16-45.14 45.16H522v29.5c0 5.52-4.48 10-10 10-5.54 0-10-4.48-10-10v-29.5h-35.3c-5.54 0-10-4.48-10-10s4.46-10 10-10h45.18c0.04 0 0.08-0.02 0.12-0.02 0.02 0 0.06 0.02 0.1 0.02h10.04c13.86 0 25.14-11.28 25.14-25.16 0-13.86-11.28-25.16-25.14-25.16h-20.3c-24.9 0-45.14-20.26-45.14-45.14 0-24.9 20.24-45.16 45.14-45.16h0.16V175.46c0-5.54 4.46-10 10-10 5.52 0 10 4.46 10 10v29.5h35.28c5.52 0 10 4.48 10 10s-4.48 10-10 10h-55.44c-13.86 0-25.14 11.28-25.14 25.16 0 13.86 11.28 25.14 25.14 25.14z" fill="#F9C139" p-id="5864"></path><path d="M527.34 409.24c-76.82 0-139.32-62.5-139.32-139.32 0-34.5 12.62-66.14 33.48-90.5-29.86 25.58-48.82 63.54-48.82 105.84 0 76.82 62.5 139.32 139.32 139.32 42.3 0 80.26-18.96 105.84-48.82-24.36 20.86-55.98 33.48-90.5 33.48z" fill="#23130D" opacity=".2" p-id="5865"></path><path d="M785.44 727.38v-32.46H123.68c-7.28 0-13.22 6.52-13.22 14.52v245.22c0 8 5.94 14.52 13.22 14.52h661.76v-32.48c-17.9-14.92-29.48-38.3-29.48-64.56v-80.18c0-26.26 11.58-49.64 29.48-64.58z m-91.24-10.84h5.82c8.28 0 15 6.72 15 15 0 8.28-6.72 15-15 15h-5.82c-8.28 0-15-6.72-15-15 0-8.28 6.72-15 15-15z m20.82 111.68c0 8.28-6.72 15-15 15h-5.82c-8.28 0-15-6.72-15-15s6.72-15 15-15h5.82c8.28 0 15 6.72 15 15z m-40.98-62.94c8.3 0 15 6.7 15 15 0 8.28-6.7 15-15 15h-5.8c-8.28 0-15-6.72-15-15 0-8.3 6.72-15 15-15h5.8z m-15.16 62.94c0 8.28-6.72 15-15 15h-5.82c-8.28 0-15-6.72-15-15s6.72-15 15-15h5.82c8.28 0 15 6.72 15 15z m-20.82-111.68h5.82c8.28 0 15 6.72 15 15 0 8.28-6.72 15-15 15h-5.82c-8.28 0-15-6.72-15-15 0-8.28 6.72-15 15-15z m-20.16 48.74c8.3 0 15 6.7 15 15 0 8.28-6.7 15-15 15h-5.8c-8.28 0-15-6.72-15-15 0-8.3 6.72-15 15-15h5.8z m-230.36 96.66h5.8c8.28 0 15 6.72 15 15 0 8.3-6.72 15-15 15h-5.8c-8.28 0-15-6.7-15-15 0-8.28 6.72-15 15-15z m-24.38-18.72h-5.8c-8.28 0-15-6.72-15-15s6.72-15 15-15h5.8c8.3 0 15 6.72 15 15s-6.7 15-15 15z m35.34-15c0-8.28 6.72-15 15-15h5.82c8.28 0 15 6.72 15 15s-6.72 15-15 15h-5.82c-8.28 0-15-6.72-15-15z m45.18 33.72h5.8c8.28 0 15 6.72 15 15 0 8.3-6.72 15-15 15h-5.8a14.98 14.98 0 0 1-15-15c0-8.28 6.7-15 15-15z m10.96-33.72c0-8.28 6.72-15 15-15h5.82c8.28 0 15 6.72 15 15s-6.72 15-15 15h-5.82c-8.28 0-15-6.72-15-15z m45.18 33.72h5.8c8.28 0 15 6.72 15 15 0 8.3-6.72 15-15 15h-5.8c-8.28 0-15-6.7-15-15 0-8.28 6.72-15 15-15z m10.98-33.72c0-8.28 6.7-15 15-15h5.78c8.3 0 15 6.72 15 15s-6.7 15-15 15h-5.78c-8.3 0-15-6.72-15-15z m45.16 33.72h5.8c8.28 0 15 6.72 15 15 0 8.3-6.72 15-15 15h-5.8c-8.28 0-15-6.7-15-15 0-8.28 6.72-15 15-15z m10.96-33.72c0-8.28 6.72-15 15-15h5.82c8.28 0 15 6.72 15 15s-6.72 15-15 15h-5.82c-8.28 0-15-6.72-15-15z m15-111.68h5.82c8.28 0 15 6.72 15 15 0 8.28-6.72 15-15 15h-5.82c-8.28 0-15-6.72-15-15 0-8.28 6.72-15 15-15z m-20.16 48.74c8.28 0 15 6.7 15 15 0 8.28-6.72 15-15 15h-5.8c-8.28 0-15-6.72-15-15 0-8.3 6.72-15 15-15h5.8z m-35.96-48.74h5.78c8.3 0 15 6.72 15 15 0 8.28-6.7 15-15 15h-5.78c-8.3 0-15-6.72-15-15 0-8.28 6.7-15 15-15z m-20.18 48.74c8.28 0 15 6.7 15 15 0 8.28-6.72 15-15 15h-5.8c-8.28 0-15-6.72-15-15 0-8.3 6.72-15 15-15h5.8z m-35.98-48.74h5.82c8.28 0 15 6.72 15 15 0 8.28-6.72 15-15 15h-5.82c-8.28 0-15-6.72-15-15 0-8.28 6.72-15 15-15z m-20.16 48.74c8.28 0 15 6.7 15 15 0 8.28-6.72 15-15 15h-5.8c-8.3 0-15-6.72-15-15 0-8.3 6.7-15 15-15h5.8z m-35.98-48.74h5.82c8.28 0 15 6.72 15 15 0 8.28-6.72 15-15 15h-5.82c-8.28 0-15-6.72-15-15 0-8.28 6.72-15 15-15z m-20.16 48.74c8.28 0 15 6.7 15 15 0 8.28-6.72 15-15 15h-5.8c-8.28 0-15-6.72-15-15 0-8.3 6.72-15 15-15h5.8z m-35.98-48.74h5.8c8.3 0 15 6.72 15 15 0 8.28-6.7 15-15 15h-5.8c-8.28 0-15-6.72-15-15 0-8.28 6.72-15 15-15z m-20.16 48.74c8.28 0 15 6.7 15 15 0 8.28-6.72 15-15 15h-5.8c-8.3 0-15-6.72-15-15 0-8.3 6.7-15 15-15h5.8z m-15.16 62.94c0 8.28-6.72 15-15 15h-5.82c-8.28 0-15-6.72-15-15s6.72-15 15-15h5.82c8.28 0 15 6.72 15 15z m-20.82-111.68h5.82c8.28 0 15 6.72 15 15 0 8.28-6.72 15-15 15h-5.82c-8.28 0-15-6.72-15-15 0-8.28 6.72-15 15-15z m-20.16 48.74c8.28 0 15 6.7 15 15 0 8.28-6.72 15-15 15h-5.8c-8.3 0-15-6.72-15-15 0-8.3 6.7-15 15-15h5.8z m-15.16 62.94c0 8.28-6.72 15-15 15h-5.82c-8.28 0-15-6.72-15-15s6.72-15 15-15h5.82c8.28 0 15 6.72 15 15z m-20.82-111.68h5.82c8.28 0 15 6.72 15 15 0 8.28-6.72 15-15 15h-5.82c-8.28 0-15-6.72-15-15 0-8.28 6.72-15 15-15z m-20.16 48.74c8.28 0 15 6.7 15 15 0 8.28-6.72 15-15 15h-5.8c-8.3 0-15-6.72-15-15 0-8.3 6.7-15 15-15h5.8z m-15.16 62.94c0 8.28-6.72 15-15 15h-5.82c-8.28 0-15-6.72-15-15s6.72-15 15-15h5.82c8.28 0 15 6.72 15 15z m-20.82-111.68h5.82c8.28 0 15 6.72 15 15 0 8.28-6.72 15-15 15h-5.82c-8.28 0-15-6.72-15-15 0-8.28 6.72-15 15-15z m-25.96 48.74h5.8c8.28 0 15 6.7 15 15 0 8.28-6.72 15-15 15h-5.8c-8.3 0-15-6.72-15-15 0-8.3 6.7-15 15-15z m0 126.66a14.98 14.98 0 0 1-15-15c0-8.28 6.7-15 15-15h5.8c8.28 0 15 6.72 15 15 0 8.3-6.72 15-15 15h-5.8z m31.78 51.74h-5.82c-8.28 0-15-6.72-15-15 0-8.28 6.72-15 15-15h5.82c8.28 0 15 6.72 15 15 0 8.28-6.72 15-15 15z m24.36-51.74a14.98 14.98 0 0 1-15-15c0-8.28 6.7-15 15-15h5.8c8.28 0 15 6.72 15 15 0 8.3-6.72 15-15 15h-5.8z m31.78 51.74h-5.82c-8.28 0-15-6.72-15-15 0-8.28 6.72-15 15-15h5.82c8.28 0 15 6.72 15 15 0 8.28-6.72 15-15 15z m24.36-51.74a14.98 14.98 0 0 1-15-15c0-8.28 6.7-15 15-15h5.8c8.28 0 15 6.72 15 15 0 8.3-6.72 15-15 15h-5.8z m31.78 51.74h-5.82c-8.28 0-15-6.72-15-15 0-8.28 6.72-15 15-15h5.82c8.28 0 15 6.72 15 15 0 8.28-6.72 15-15 15z m24.36-51.74a14.98 14.98 0 0 1-15-15c0-8.28 6.7-15 15-15h5.8c8.28 0 15 6.72 15 15 0 8.3-6.72 15-15 15h-5.8z m256.82 51.74H357.36c-8.28 0-15-6.72-15-15 0-8.28 6.72-15 15-15h230.86c8.28 0 15 6.72 15 15 0 8.28-6.72 15-15 15z m23.88-51.74c-8.28 0-15-6.7-15-15 0-8.28 6.72-15 15-15h5.8c8.3 0 15 6.72 15 15 0 8.3-6.7 15-15 15h-5.8z m31.78 51.74h-5.82c-8.28 0-15-6.72-15-15 0-8.28 6.72-15 15-15h5.82c8.28 0 15 6.72 15 15 0 8.28-6.72 15-15 15z m24.36-51.74c-8.28 0-15-6.7-15-15 0-8.28 6.72-15 15-15h5.8c8.3 0 15 6.72 15 15 0 8.3-6.7 15-15 15h-5.8z m31.78 51.74h-5.82c-8.28 0-15-6.72-15-15 0-8.28 6.72-15 15-15h5.82c8.28 0 15 6.72 15 15 0 8.28-6.72 15-15 15z m30.16-51.74h-5.8c-8.28 0-15-6.7-15-15 0-8.28 6.72-15 15-15h5.8c8.3 0 15 6.72 15 15 0 8.3-6.7 15-15 15z m0-96.66h-5.8c-8.28 0-15-6.72-15-15 0-8.3 6.72-15 15-15h5.8c8.3 0 15 6.7 15 15 0 8.28-6.7 15-15 15z" fill="#E1E1E5" p-id="5866"></path><path d="M135.06 954.66V709.44c0-8 5.94-14.52 13.22-14.52h-24.6c-7.28 0-13.22 6.52-13.22 14.52v245.22c0 8 5.94 14.52 13.22 14.52h24.6c-7.28 0-13.22-6.52-13.22-14.52z" fill="#23130D" opacity=".2" p-id="5867"></path><path d="M857.88 730.36h-26.26c-11.14 0-21.52 3.66-30.22 9.92-0.2 0.14-0.4 0.3-0.62 0.42-14.94 11.06-24.82 29.9-24.82 51.26v80.18c0 21.3 9.84 40.12 24.72 51.18 0.3 0.18 0.58 0.4 0.86 0.6 8.68 6.2 19 9.82 30.08 9.82h26.26c30.68 0 55.66-27.64 55.66-61.6v-80.18c0-33.98-24.98-61.6-55.66-61.6z m-3.12 77.38c0 5.52-4.48 10-10 10s-10-4.48-10-10v-47.32c0-5.54 4.48-10 10-10s10 4.46 10 10v47.32z" fill="#E1E1E5" p-id="5868"></path><path d="M825.34 923.32c-14.88-11.06-24.72-29.88-24.72-51.18v-80.18c0-21.36 9.88-40.2 24.82-51.26 0.22-0.12 0.42-0.28 0.62-0.42 8.7-6.26 19.08-9.92 30.22-9.92h-24.66c-11.14 0-21.52 3.66-30.22 9.92-0.2 0.14-0.4 0.3-0.62 0.42-14.94 11.06-24.82 29.9-24.82 51.26v80.18c0 21.3 9.84 40.12 24.72 51.18 0.3 0.18 0.58 0.4 0.86 0.6 8.68 6.2 19 9.82 30.08 9.82h24.66c-11.08 0-21.4-3.62-30.08-9.82-0.28-0.2-0.56-0.42-0.86-0.6z" fill="#23130D" opacity=".2" p-id="5869"></path><path d="M854.76 760.42v47.32c0 5.52-4.48 10-10 10s-10-4.48-10-10v-47.32c0-5.54 4.48-10 10-10s10 4.46 10 10zM209.76 731.54c0 8.28-6.72 15-15 15h-5.82c-8.28 0-15-6.72-15-15 0-8.28 6.72-15 15-15h5.82c8.28 0 15 6.72 15 15zM265.9 731.54c0 8.28-6.72 15-15 15h-5.82c-8.28 0-15-6.72-15-15 0-8.28 6.72-15 15-15h5.82c8.28 0 15 6.72 15 15zM322.04 731.54c0 8.28-6.72 15-15 15h-5.82c-8.28 0-15-6.72-15-15 0-8.28 6.72-15 15-15h5.82c8.28 0 15 6.72 15 15zM378.16 731.54c0 8.28-6.7 15-15 15h-5.8c-8.28 0-15-6.72-15-15 0-8.28 6.72-15 15-15h5.8c8.3 0 15 6.72 15 15zM434.32 731.54c0 8.28-6.72 15-15 15h-5.82c-8.28 0-15-6.72-15-15 0-8.28 6.72-15 15-15h5.82c8.28 0 15 6.72 15 15zM490.46 731.54c0 8.28-6.72 15-15 15h-5.82c-8.28 0-15-6.72-15-15 0-8.28 6.72-15 15-15h5.82c8.28 0 15 6.72 15 15zM546.58 731.54c0 8.28-6.7 15-15 15h-5.78c-8.3 0-15-6.72-15-15 0-8.28 6.7-15 15-15h5.78c8.3 0 15 6.72 15 15zM602.74 731.54c0 8.28-6.72 15-15 15h-5.82c-8.28 0-15-6.72-15-15 0-8.28 6.72-15 15-15h5.82c8.28 0 15 6.72 15 15zM658.88 731.54c0 8.28-6.72 15-15 15h-5.82c-8.28 0-15-6.72-15-15 0-8.28 6.72-15 15-15h5.82c8.28 0 15 6.72 15 15zM715.02 731.54c0 8.28-6.72 15-15 15h-5.82c-8.28 0-15-6.72-15-15 0-8.28 6.72-15 15-15h5.82c8.28 0 15 6.72 15 15zM183.78 780.28c0 8.28-6.72 15-15 15h-5.8c-8.3 0-15-6.72-15-15 0-8.3 6.7-15 15-15h5.8c8.28 0 15 6.7 15 15zM239.92 780.28c0 8.28-6.72 15-15 15h-5.8c-8.3 0-15-6.72-15-15 0-8.3 6.7-15 15-15h5.8c8.28 0 15 6.7 15 15zM296.06 780.28c0 8.28-6.72 15-15 15h-5.8c-8.3 0-15-6.72-15-15 0-8.3 6.7-15 15-15h5.8c8.28 0 15 6.7 15 15zM352.2 780.28c0 8.28-6.72 15-15 15h-5.8c-8.3 0-15-6.72-15-15 0-8.3 6.7-15 15-15h5.8c8.28 0 15 6.7 15 15zM408.34 780.28c0 8.28-6.72 15-15 15h-5.8c-8.28 0-15-6.72-15-15 0-8.3 6.72-15 15-15h5.8c8.28 0 15 6.7 15 15zM464.48 780.28c0 8.28-6.72 15-15 15h-5.8c-8.3 0-15-6.72-15-15 0-8.3 6.7-15 15-15h5.8c8.28 0 15 6.7 15 15zM520.62 780.28c0 8.28-6.72 15-15 15h-5.8c-8.28 0-15-6.72-15-15 0-8.3 6.72-15 15-15h5.8c8.28 0 15 6.7 15 15zM576.76 780.28c0 8.28-6.72 15-15 15h-5.8c-8.28 0-15-6.72-15-15 0-8.3 6.72-15 15-15h5.8c8.28 0 15 6.7 15 15zM632.9 780.28c0 8.28-6.7 15-15 15h-5.8c-8.28 0-15-6.72-15-15 0-8.3 6.72-15 15-15h5.8c8.3 0 15 6.7 15 15zM689.04 780.28c0 8.28-6.7 15-15 15h-5.8c-8.28 0-15-6.72-15-15 0-8.3 6.72-15 15-15h5.8c8.3 0 15 6.7 15 15zM745.18 780.28c0 8.28-6.7 15-15 15h-5.8c-8.28 0-15-6.72-15-15 0-8.3 6.72-15 15-15h5.8c8.3 0 15 6.7 15 15zM209.76 828.22c0 8.28-6.72 15-15 15h-5.82c-8.28 0-15-6.72-15-15s6.72-15 15-15h5.82c8.28 0 15 6.72 15 15zM265.9 828.22c0 8.28-6.72 15-15 15h-5.82c-8.28 0-15-6.72-15-15s6.72-15 15-15h5.82c8.28 0 15 6.72 15 15zM322.04 828.22c0 8.28-6.72 15-15 15h-5.82c-8.28 0-15-6.72-15-15s6.72-15 15-15h5.82c8.28 0 15 6.72 15 15zM378.16 828.22c0 8.28-6.7 15-15 15h-5.8c-8.28 0-15-6.72-15-15s6.72-15 15-15h5.8c8.3 0 15 6.72 15 15zM434.32 828.22c0 8.28-6.72 15-15 15h-5.82c-8.28 0-15-6.72-15-15s6.72-15 15-15h5.82c8.28 0 15 6.72 15 15zM490.46 828.22c0 8.28-6.72 15-15 15h-5.82c-8.28 0-15-6.72-15-15s6.72-15 15-15h5.82c8.28 0 15 6.72 15 15zM546.58 828.22c0 8.28-6.7 15-15 15h-5.78c-8.3 0-15-6.72-15-15s6.7-15 15-15h5.78c8.3 0 15 6.72 15 15zM602.74 828.22c0 8.28-6.72 15-15 15h-5.82c-8.28 0-15-6.72-15-15s6.72-15 15-15h5.82c8.28 0 15 6.72 15 15zM658.88 828.22c0 8.28-6.72 15-15 15h-5.82c-8.28 0-15-6.72-15-15s6.72-15 15-15h5.82c8.28 0 15 6.72 15 15zM715.02 828.22c0 8.28-6.72 15-15 15h-5.82c-8.28 0-15-6.72-15-15s6.72-15 15-15h5.82c8.28 0 15 6.72 15 15zM209.76 928.68c0 8.28-6.72 15-15 15h-5.82c-8.28 0-15-6.72-15-15 0-8.28 6.72-15 15-15h5.82c8.28 0 15 6.72 15 15zM265.9 928.68c0 8.28-6.72 15-15 15h-5.82c-8.28 0-15-6.72-15-15 0-8.28 6.72-15 15-15h5.82c8.28 0 15 6.72 15 15zM322.04 928.68c0 8.28-6.72 15-15 15h-5.82c-8.28 0-15-6.72-15-15 0-8.28 6.72-15 15-15h5.82c8.28 0 15 6.72 15 15zM603.22 928.68c0 8.28-6.72 15-15 15H357.36c-8.28 0-15-6.72-15-15 0-8.28 6.72-15 15-15h230.86c8.28 0 15 6.72 15 15zM658.88 928.68c0 8.28-6.72 15-15 15h-5.82c-8.28 0-15-6.72-15-15 0-8.28 6.72-15 15-15h5.82c8.28 0 15 6.72 15 15zM715.02 928.68c0 8.28-6.72 15-15 15h-5.82c-8.28 0-15-6.72-15-15 0-8.28 6.72-15 15-15h5.82c8.28 0 15 6.72 15 15zM183.78 876.94c0 8.3-6.72 15-15 15h-5.8a14.98 14.98 0 0 1-15-15c0-8.28 6.7-15 15-15h5.8c8.28 0 15 6.72 15 15zM239.92 876.94c0 8.3-6.72 15-15 15h-5.8a14.98 14.98 0 0 1-15-15c0-8.28 6.7-15 15-15h5.8c8.28 0 15 6.72 15 15zM296.06 876.94c0 8.3-6.72 15-15 15h-5.8a14.98 14.98 0 0 1-15-15c0-8.28 6.7-15 15-15h5.8c8.28 0 15 6.72 15 15zM352.2 876.94c0 8.3-6.72 15-15 15h-5.8a14.98 14.98 0 0 1-15-15c0-8.28 6.7-15 15-15h5.8c8.28 0 15 6.72 15 15zM408.34 876.94c0 8.3-6.72 15-15 15h-5.8c-8.28 0-15-6.7-15-15 0-8.28 6.72-15 15-15h5.8c8.28 0 15 6.72 15 15zM464.48 876.94c0 8.3-6.72 15-15 15h-5.8a14.98 14.98 0 0 1-15-15c0-8.28 6.7-15 15-15h5.8c8.28 0 15 6.72 15 15zM520.62 876.94c0 8.3-6.72 15-15 15h-5.8c-8.28 0-15-6.7-15-15 0-8.28 6.72-15 15-15h5.8c8.28 0 15 6.72 15 15zM576.76 876.94c0 8.3-6.72 15-15 15h-5.8c-8.28 0-15-6.7-15-15 0-8.28 6.72-15 15-15h5.8c8.28 0 15 6.72 15 15zM632.9 876.94c0 8.3-6.7 15-15 15h-5.8c-8.28 0-15-6.7-15-15 0-8.28 6.72-15 15-15h5.8c8.3 0 15 6.72 15 15zM689.04 876.94c0 8.3-6.7 15-15 15h-5.8c-8.28 0-15-6.7-15-15 0-8.28 6.72-15 15-15h5.8c8.3 0 15 6.72 15 15zM745.18 876.94c0 8.3-6.7 15-15 15h-5.8c-8.28 0-15-6.7-15-15 0-8.28 6.72-15 15-15h5.8c8.3 0 15 6.72 15 15zM567.28 320.42c0 24.9-20.26 45.16-45.14 45.16H522v29.5c0 5.52-4.48 10-10 10-5.54 0-10-4.48-10-10v-29.5h-35.3c-5.54 0-10-4.48-10-10s4.46-10 10-10h45.18c0.04 0 0.08-0.02 0.12-0.02 0.02 0 0.06 0.02 0.1 0.02h10.04c13.86 0 25.14-11.28 25.14-25.16 0-13.86-11.28-25.16-25.14-25.16h-20.3c-24.9 0-45.14-20.26-45.14-45.14 0-24.9 20.24-45.16 45.14-45.16h0.16V175.46c0-5.54 4.46-10 10-10 5.52 0 10 4.46 10 10v29.5h35.28c5.52 0 10 4.48 10 10s-4.48 10-10 10h-55.44c-13.86 0-25.14 11.28-25.14 25.16 0 13.86 11.28 25.14 25.14 25.14h20.3c24.88 0 45.14 20.26 45.14 45.16zM512.002 93.478a10 10 0 0 0 10-10V44.822a10 10 0 1 0-20 0v38.656a10 10 0 0 0 10 10zM402.448 115.514a9.996 9.996 0 0 0 13.662 3.658 10.004 10.004 0 0 0 3.66-13.662l-19.328-33.472a10.004 10.004 0 0 0-13.662-3.66 10.004 10.004 0 0 0-3.66 13.662l19.328 33.474zM298.77 173.704l33.478 19.326a9.998 9.998 0 0 0 13.66-3.66 10 10 0 0 0-3.66-13.66l-33.478-19.326a10 10 0 1 0-10 17.32zM271.556 295.266h38.658a10 10 0 0 0 0-20h-38.658a10 10 0 0 0 0 20zM332.246 377.5l-33.478 19.334a10.004 10.004 0 0 0 5.01 18.662c1.696 0 3.416-0.432 4.992-1.342l33.478-19.334a10 10 0 1 0-10.002-17.32zM391.766 503.502a9.998 9.998 0 0 0 8.67-5.002l19.332-33.48a10 10 0 1 0-17.32-10l-19.332 33.48a10 10 0 0 0 8.65 15.002zM607.898 451.36a10 10 0 0 0-3.664 13.66l19.324 33.484a9.998 9.998 0 0 0 13.66 3.664 10 10 0 0 0 3.664-13.66l-19.324-33.484a9.998 9.998 0 0 0-13.66-3.664zM681.748 394.818l33.48 19.336a10 10 0 0 0 10.004-17.318l-33.48-19.336a10 10 0 0 0-10.004 17.318zM713.786 275.266a10 10 0 0 0-0.002 20l38.66 0.004h0.002a10 10 0 0 0 0.002-20l-38.662-0.004zM686.76 194.372c1.696 0 3.414-0.432 4.988-1.34l33.484-19.326a10 10 0 0 0 3.662-13.66 10 10 0 0 0-13.658-3.662l-33.484 19.326a10 10 0 0 0 5.008 18.662zM607.896 119.174a10 10 0 0 0 13.66-3.658l19.332-33.478a10 10 0 1 0-17.32-10.002l-19.332 33.478a10 10 0 0 0 3.66 13.66z" fill="#23130D" p-id="5870"></path><path d="M512 160.532a10 10 0 0 0 0 20c57.75 0 104.734 46.984 104.734 104.734a10 10 0 1 0 20 0c0-68.778-55.954-124.734-124.734-124.734z" fill="#FFFFFF" p-id="5871"></path></svg>